<mxfile host="app.diagrams.net" modified="2023-02-13T07:40:31.454Z" agent="5.0 (X11)" etag="dsnjcxijMecbNO2jV2w2" version="20.8.18" type="github">
  <diagram name="Page-1" id="CMiiOAnFV9THqSzoXPIe">
    <mxGraphModel dx="1144" dy="647" grid="1" gridSize="10" guides="1" tooltips="1" connect="1" arrows="1" fold="1" page="1" pageScale="1" pageWidth="850" pageHeight="1100" math="0" shadow="0">
      <root>
        <mxCell id="0" />
        <mxCell id="1" parent="0" />
        <mxCell id="MmWp_lG0dLPM5gUMql4T-1" value="Admin" style="swimlane;horizontal=0;whiteSpace=wrap;html=1;" vertex="1" parent="1">
          <mxGeometry x="40" y="130" width="910" height="160" as="geometry" />
        </mxCell>
        <mxCell id="MmWp_lG0dLPM5gUMql4T-2" value="choose upload logo" style="shape=ellipse;html=1;fillColor=strokeColor;strokeWidth=2;verticalLabelPosition=bottom;verticalAlignment=top;perimeter=ellipsePerimeter;" vertex="1" parent="MmWp_lG0dLPM5gUMql4T-1">
          <mxGeometry x="80" y="70" width="40" height="40" as="geometry" />
        </mxCell>
        <mxCell id="MmWp_lG0dLPM5gUMql4T-3" value="" style="ellipse;html=1;shape=endState;fillColor=#000000;strokeColor=#ff0000;strokeWidth=2;fontFamily=Helvetica;fontSize=12;fontColor=default;" vertex="1" parent="MmWp_lG0dLPM5gUMql4T-1">
          <mxGeometry x="860" y="70" width="30" height="30" as="geometry" />
        </mxCell>
        <mxCell id="MmWp_lG0dLPM5gUMql4T-4" value="Choose Image" style="rounded=1;whiteSpace=wrap;html=1;strokeWidth=2;fontFamily=Helvetica;fontSize=12;" vertex="1" parent="MmWp_lG0dLPM5gUMql4T-1">
          <mxGeometry x="280" y="55" width="120" height="60" as="geometry" />
        </mxCell>
        <mxCell id="MmWp_lG0dLPM5gUMql4T-5" value="AccountManagementController" style="swimlane;horizontal=0;whiteSpace=wrap;html=1;" vertex="1" parent="1">
          <mxGeometry x="40" y="300" width="910" height="380" as="geometry" />
        </mxCell>
        <mxCell id="MmWp_lG0dLPM5gUMql4T-6" value="Display User new Avatar" style="rounded=1;whiteSpace=wrap;html=1;strokeWidth=2;fontFamily=Helvetica;fontSize=12;" vertex="1" parent="MmWp_lG0dLPM5gUMql4T-5">
          <mxGeometry x="770" y="40" width="120" height="60" as="geometry" />
        </mxCell>
        <mxCell id="MmWp_lG0dLPM5gUMql4T-7" value="Display Upload form and as for image in admin machine" style="rounded=1;whiteSpace=wrap;html=1;strokeWidth=2;fontFamily=Helvetica;fontSize=12;" vertex="1" parent="MmWp_lG0dLPM5gUMql4T-5">
          <mxGeometry x="50" y="20" width="120" height="60" as="geometry" />
        </mxCell>
        <mxCell id="MmWp_lG0dLPM5gUMql4T-8" style="edgeStyle=orthogonalEdgeStyle;rounded=0;orthogonalLoop=1;jettySize=auto;html=1;entryX=0.5;entryY=0;entryDx=0;entryDy=0;entryPerimeter=0;dashed=1;" edge="1" parent="MmWp_lG0dLPM5gUMql4T-5" source="MmWp_lG0dLPM5gUMql4T-9" target="MmWp_lG0dLPM5gUMql4T-12">
          <mxGeometry relative="1" as="geometry" />
        </mxCell>
        <mxCell id="MmWp_lG0dLPM5gUMql4T-9" value="Check image" style="rounded=1;whiteSpace=wrap;html=1;strokeWidth=2;fontFamily=Helvetica;fontSize=12;" vertex="1" parent="MmWp_lG0dLPM5gUMql4T-5">
          <mxGeometry x="280" y="20" width="120" height="60" as="geometry" />
        </mxCell>
        <mxCell id="MmWp_lG0dLPM5gUMql4T-10" value="No" style="edgeStyle=orthogonalEdgeStyle;rounded=0;orthogonalLoop=1;jettySize=auto;html=1;entryX=0;entryY=0.5;entryDx=0;entryDy=0;dashed=1;" edge="1" parent="MmWp_lG0dLPM5gUMql4T-5" source="MmWp_lG0dLPM5gUMql4T-12" target="MmWp_lG0dLPM5gUMql4T-13">
          <mxGeometry relative="1" as="geometry" />
        </mxCell>
        <mxCell id="MmWp_lG0dLPM5gUMql4T-11" value="yes" style="edgeStyle=orthogonalEdgeStyle;rounded=0;orthogonalLoop=1;jettySize=auto;html=1;entryX=0.5;entryY=0;entryDx=0;entryDy=0;entryPerimeter=0;dashed=1;" edge="1" parent="MmWp_lG0dLPM5gUMql4T-5" source="MmWp_lG0dLPM5gUMql4T-12" target="MmWp_lG0dLPM5gUMql4T-17">
          <mxGeometry relative="1" as="geometry" />
        </mxCell>
        <mxCell id="MmWp_lG0dLPM5gUMql4T-12" value="Has chosen any image?" style="strokeWidth=2;html=1;shape=mxgraph.flowchart.decision;whiteSpace=wrap;" vertex="1" parent="MmWp_lG0dLPM5gUMql4T-5">
          <mxGeometry x="290" y="120" width="100" height="100" as="geometry" />
        </mxCell>
        <mxCell id="MmWp_lG0dLPM5gUMql4T-13" value="Promp User has not chosen an image" style="rounded=1;whiteSpace=wrap;html=1;strokeWidth=2;fontFamily=Helvetica;fontSize=12;" vertex="1" parent="MmWp_lG0dLPM5gUMql4T-5">
          <mxGeometry x="600" y="40" width="120" height="60" as="geometry" />
        </mxCell>
        <mxCell id="MmWp_lG0dLPM5gUMql4T-14" value="No" style="edgeStyle=orthogonalEdgeStyle;rounded=0;orthogonalLoop=1;jettySize=auto;html=1;dashed=1;" edge="1" parent="MmWp_lG0dLPM5gUMql4T-5" source="MmWp_lG0dLPM5gUMql4T-17" target="MmWp_lG0dLPM5gUMql4T-13">
          <mxGeometry relative="1" as="geometry" />
        </mxCell>
        <mxCell id="MmWp_lG0dLPM5gUMql4T-15" style="edgeStyle=orthogonalEdgeStyle;rounded=0;orthogonalLoop=1;jettySize=auto;html=1;dashed=1;" edge="1" parent="MmWp_lG0dLPM5gUMql4T-5" source="MmWp_lG0dLPM5gUMql4T-17" target="MmWp_lG0dLPM5gUMql4T-6">
          <mxGeometry relative="1" as="geometry">
            <Array as="points">
              <mxPoint x="150" y="330" />
              <mxPoint x="830" y="330" />
            </Array>
          </mxGeometry>
        </mxCell>
        <mxCell id="MmWp_lG0dLPM5gUMql4T-16" value="Yes" style="edgeLabel;html=1;align=center;verticalAlign=middle;resizable=0;points=[];" vertex="1" connectable="0" parent="MmWp_lG0dLPM5gUMql4T-15">
          <mxGeometry x="-0.1728" y="-1" relative="1" as="geometry">
            <mxPoint as="offset" />
          </mxGeometry>
        </mxCell>
        <mxCell id="MmWp_lG0dLPM5gUMql4T-17" value="Is Image format support?" style="strokeWidth=2;html=1;shape=mxgraph.flowchart.decision;whiteSpace=wrap;" vertex="1" parent="MmWp_lG0dLPM5gUMql4T-5">
          <mxGeometry x="100" y="200" width="100" height="100" as="geometry" />
        </mxCell>
        <mxCell id="MmWp_lG0dLPM5gUMql4T-18" style="edgeStyle=orthogonalEdgeStyle;rounded=0;orthogonalLoop=1;jettySize=auto;html=1;entryX=0.5;entryY=1;entryDx=0;entryDy=0;dashed=1;strokeWidth=1;fontFamily=Helvetica;fontSize=12;fontColor=default;" edge="1" parent="1" source="MmWp_lG0dLPM5gUMql4T-6" target="MmWp_lG0dLPM5gUMql4T-3">
          <mxGeometry relative="1" as="geometry" />
        </mxCell>
        <mxCell id="MmWp_lG0dLPM5gUMql4T-19" style="edgeStyle=orthogonalEdgeStyle;rounded=0;orthogonalLoop=1;jettySize=auto;html=1;entryX=0.5;entryY=0;entryDx=0;entryDy=0;dashed=1;strokeWidth=1;fontFamily=Helvetica;fontSize=12;fontColor=default;" edge="1" parent="1" source="MmWp_lG0dLPM5gUMql4T-2" target="MmWp_lG0dLPM5gUMql4T-7">
          <mxGeometry relative="1" as="geometry" />
        </mxCell>
        <mxCell id="MmWp_lG0dLPM5gUMql4T-20" value="Upload Logo" style="text;html=1;strokeColor=none;fillColor=none;align=center;verticalAlign=middle;whiteSpace=wrap;rounded=0;fontSize=19;" vertex="1" parent="1">
          <mxGeometry x="460" y="80" width="180" height="30" as="geometry" />
        </mxCell>
        <mxCell id="MmWp_lG0dLPM5gUMql4T-21" style="edgeStyle=orthogonalEdgeStyle;rounded=0;orthogonalLoop=1;jettySize=auto;html=1;entryX=0;entryY=0.5;entryDx=0;entryDy=0;dashed=1;" edge="1" parent="1" source="MmWp_lG0dLPM5gUMql4T-7" target="MmWp_lG0dLPM5gUMql4T-4">
          <mxGeometry relative="1" as="geometry" />
        </mxCell>
        <mxCell id="MmWp_lG0dLPM5gUMql4T-22" style="edgeStyle=orthogonalEdgeStyle;rounded=0;orthogonalLoop=1;jettySize=auto;html=1;entryX=0.5;entryY=0;entryDx=0;entryDy=0;dashed=1;" edge="1" parent="1" source="MmWp_lG0dLPM5gUMql4T-4" target="MmWp_lG0dLPM5gUMql4T-9">
          <mxGeometry relative="1" as="geometry" />
        </mxCell>
      </root>
    </mxGraphModel>
  </diagram>
</mxfile>
